<mxfile host="app.diagrams.net" agent="Mozilla/5.0 (Windows NT 10.0; Win64; x64) AppleWebKit/537.36 (KHTML, like Gecko) Chrome/135.0.0.0 Safari/537.36" version="26.2.14">
  <diagram name="Sayfa -1" id="oM9mSxct1nG2HFv9FFRo">
    <mxGraphModel grid="1" page="1" gridSize="10" guides="1" tooltips="1" connect="1" arrows="1" fold="1" pageScale="1" pageWidth="827" pageHeight="1169" math="0" shadow="0">
      <root>
        <mxCell id="0" />
        <mxCell id="1" parent="0" />
        <mxCell id="X0IjFQm-B-omaKns978o-1" value="" style="rounded=0;whiteSpace=wrap;html=1;fillColor=#000000;" vertex="1" parent="1">
          <mxGeometry x="160" y="60" width="530" height="580" as="geometry" />
        </mxCell>
        <mxCell id="X0IjFQm-B-omaKns978o-2" value="" style="rounded=0;whiteSpace=wrap;html=1;fillColor=#000000;" vertex="1" parent="1">
          <mxGeometry x="190" y="110" width="470" height="470" as="geometry" />
        </mxCell>
        <mxCell id="X0IjFQm-B-omaKns978o-3" value="&lt;b&gt;&lt;font style=&quot;font-size: 18px; color: rgb(255, 255, 255);&quot;&gt;My Notifications&lt;/font&gt;&lt;/b&gt;" style="text;html=1;align=center;verticalAlign=middle;whiteSpace=wrap;rounded=0;" vertex="1" parent="1">
          <mxGeometry x="350" y="65" width="150" height="30" as="geometry" />
        </mxCell>
        <mxCell id="X0IjFQm-B-omaKns978o-6" value="&lt;b&gt;&lt;font style=&quot;font-size: 15px;&quot;&gt;Congratulations you are 1 step closer to the your goal !!&amp;nbsp;&lt;/font&gt;&lt;/b&gt;" style="shape=callout;whiteSpace=wrap;html=1;perimeter=calloutPerimeter;" vertex="1" parent="1">
          <mxGeometry x="210" y="260" width="430" height="80" as="geometry" />
        </mxCell>
        <mxCell id="X0IjFQm-B-omaKns978o-12" value="&lt;font style=&quot;font-size: 16px;&quot;&gt;&lt;b&gt;&lt;font style=&quot;&quot;&gt;Congratulations you reached your goal !!&amp;nbsp;&lt;/font&gt;&lt;/b&gt;&lt;/font&gt;" style="shape=callout;whiteSpace=wrap;html=1;perimeter=calloutPerimeter;" vertex="1" parent="1">
          <mxGeometry x="210" y="130" width="430" height="80" as="geometry" />
        </mxCell>
        <mxCell id="X0IjFQm-B-omaKns978o-14" value="" style="line;strokeWidth=2;html=1;" vertex="1" parent="1">
          <mxGeometry x="190" y="220" width="470" height="10" as="geometry" />
        </mxCell>
        <mxCell id="X0IjFQm-B-omaKns978o-17" value="" style="shape=ext;double=1;rounded=0;whiteSpace=wrap;html=1;" vertex="1" parent="1">
          <mxGeometry x="360" y="590" width="150" height="40" as="geometry" />
        </mxCell>
        <mxCell id="X0IjFQm-B-omaKns978o-26" value="" style="html=1;shadow=0;dashed=0;align=center;verticalAlign=middle;shape=mxgraph.arrows2.arrow;dy=0.6;dx=40;flipH=1;notch=0;" vertex="1" parent="1">
          <mxGeometry x="170" y="65" width="70" height="35" as="geometry" />
        </mxCell>
        <mxCell id="qgd6nx838D4DqzYiFWuZ-1" value="&lt;font style=&quot;font-size: 24px;&quot;&gt;Home&lt;/font&gt;" style="text;html=1;align=center;verticalAlign=middle;whiteSpace=wrap;rounded=0;" vertex="1" parent="1">
          <mxGeometry x="405" y="595" width="60" height="30" as="geometry" />
        </mxCell>
        <mxCell id="qgd6nx838D4DqzYiFWuZ-2" value="" style="verticalLabelPosition=bottom;verticalAlign=top;html=1;shape=mxgraph.basic.x" vertex="1" parent="1">
          <mxGeometry x="630" y="120" width="20" height="30" as="geometry" />
        </mxCell>
        <mxCell id="qgd6nx838D4DqzYiFWuZ-3" value="" style="verticalLabelPosition=bottom;verticalAlign=top;html=1;shape=mxgraph.basic.x" vertex="1" parent="1">
          <mxGeometry x="630" y="250" width="20" height="30" as="geometry" />
        </mxCell>
      </root>
    </mxGraphModel>
  </diagram>
</mxfile>
